<?xml version="1.0" encoding="UTF-8"?>
<svg version="1.1" xmlns="http://www.w3.org/2000/svg" width="262" height="254">
<path d="M0 0 C1.26844915 -0.00233999 1.26844915 -0.00233999 2.56252354 -0.00472724 C5.38839518 -0.00870733 8.21421283 -0.00555925 11.04008484 -0.00241089 C13.06887849 -0.0037662 15.0976719 -0.00554687 17.12646484 -0.00772095 C22.63013953 -0.01227831 28.13379547 -0.01051306 33.63747048 -0.00734186 C39.39188961 -0.00481125 45.14630713 -0.0071576 50.90072632 -0.00872803 C60.55883574 -0.01054693 70.21693751 -0.00814994 79.87504578 -0.00338745 C91.05640216 0.00206233 102.23774034 0.0002862 113.41909629 -0.00521386 C123.0106625 -0.00974375 132.60222321 -0.01039638 142.19379014 -0.00777519 C147.92651206 -0.00621272 153.65922541 -0.00601799 159.39194679 -0.00931168 C164.77550681 -0.01218884 170.15904319 -0.01021757 175.54260063 -0.00441742 C177.52401821 -0.00308932 179.50543775 -0.00348478 181.48685455 -0.00568008 C184.17933337 -0.00838944 186.87173515 -0.00501321 189.56420898 0 C190.35873877 -0.00223072 191.15326856 -0.00446144 191.97187501 -0.00675976 C197.35049503 0.01283329 197.35049503 0.01283329 198.46464539 1.12698364 C198.5632467 2.530471 198.59543475 3.93878841 198.59745789 5.34573364 C198.59874695 6.19522583 198.60003601 7.04471802 198.60136414 7.91995239 C198.59749695 8.81327271 198.59362976 9.70659302 198.58964539 10.62698364 C198.59351257 11.52030396 198.59737976 12.41362427 198.60136414 13.33401489 C198.59943054 14.60825317 198.59943054 14.60825317 198.59745789 15.90823364 C198.59632996 16.69262817 198.59520203 17.47702271 198.59403992 18.28518677 C198.46464539 20.12698364 198.46464539 20.12698364 197.46464539 21.12698364 C194.90484937 21.22032144 192.37223034 21.24801604 189.81217957 21.23377991 C189.00096476 21.2332232 188.18974996 21.23266649 187.35395288 21.23209292 C184.61412815 21.2290378 181.87437454 21.21884213 179.13456726 21.20877075 C177.1786049 21.20521725 175.22264165 21.20213054 173.26667786 21.19947815 C169.04271389 21.19290953 164.81877079 21.1833384 160.59481812 21.17158318 C153.91328893 21.15333778 147.23176492 21.14370319 140.55021667 21.13566589 C121.54608415 21.11148098 102.54198262 21.07571194 83.53788757 21.03103638 C73.05104998 21.00645984 62.56422474 20.98911351 52.07736254 20.97947699 C45.43884877 20.97294127 38.80043655 20.95739559 32.16195774 20.93515956 C28.0228387 20.9234017 23.88374414 20.92006049 19.74460983 20.91906166 C17.82943894 20.91691985 15.91426823 20.91134774 13.9991188 20.90203094 C11.37698747 20.88977254 8.75513205 20.89000988 6.13298035 20.89320374 C5.38168838 20.88669593 4.63039641 20.88018813 3.85633802 20.87348312 C-2.69453641 20.90436108 -9.67620465 21.30974818 -14.97285461 25.50198364 C-18.75954713 29.38103452 -19.83453818 32.0886903 -19.91035461 37.50198364 C-19.79672349 42.5218057 -19.09703218 45.38265594 -15.53535461 49.12698364 C-10.13346173 52.82204766 -6.35667178 53.70821873 0.11352539 53.63250732 C1.38219783 53.6416425 1.38219783 53.6416425 2.67650002 53.65096223 C5.49719722 53.66651993 8.31704017 53.65379124 11.13774109 53.6411438 C13.16506482 53.64660621 15.19238443 53.65384856 17.21969604 53.66273499 C21.57786395 53.67805768 25.93579649 53.6808802 30.29398537 53.67396927 C37.18000118 53.66318414 44.06577076 53.6805614 50.95175171 53.70178223 C61.8360158 53.73202769 72.7202069 53.74373617 83.60450953 53.74735868 C103.11650112 53.7540133 122.62844268 53.78291387 142.14037198 53.83245504 C148.99156454 53.84899296 155.84265099 53.8543622 162.6938616 53.85086465 C166.9451873 53.85042904 171.19647255 53.85797022 175.44778633 53.86754036 C177.42555834 53.8702333 179.40333844 53.86945435 181.38110733 53.86503029 C184.07107044 53.85942694 186.76073806 53.86589301 189.45068359 53.87542725 C190.24161842 53.87076403 191.03255325 53.86610082 191.8474558 53.8612963 C197.23651604 53.8988543 197.23651604 53.8988543 199.46464539 56.12698364 C199.63635442 58.85395587 199.69710218 61.46604832 199.65214539 64.18948364 C199.65117859 65.30806763 199.65117859 65.30806763 199.65019226 66.44924927 C199.60492698 71.98670205 199.60492698 71.98670205 198.46464539 73.12698364 C196.6170327 73.22346612 194.76568728 73.24885682 192.91555786 73.24723816 C191.71095917 73.24861282 190.50636047 73.24998749 189.26525879 73.25140381 C187.9182279 73.24786421 186.57119727 73.24422939 185.22416687 73.24050903 C183.81517031 73.24022716 182.4061736 73.24038489 180.99717712 73.24095154 C177.16056909 73.24123953 173.32399204 73.23534258 169.48739123 73.22837758 C165.48217598 73.22214427 161.47696008 73.22154026 157.47174072 73.22035217 C149.88212535 73.21723879 142.2925243 73.20902531 134.70291525 73.19900268 C126.06460615 73.18784176 117.42629638 73.18233115 108.78798187 73.17730725 C91.01352824 73.1668427 73.23908796 73.14924312 55.46464539 73.12698364 C55.47624695 74.27038208 55.48784851 75.41378052 55.49980164 76.59182739 C55.50917826 78.08271118 55.5182786 79.57359673 55.52714539 81.06448364 C55.53552429 81.81922974 55.5439032 82.57397583 55.55253601 83.35159302 C55.56116979 85.27692678 55.51688871 87.20233945 55.46464539 89.12698364 C53.57806868 91.01356035 50.83292036 90.25365553 48.32250977 90.26251221 C46.99777901 90.25947586 46.99777901 90.25947586 45.64628601 90.25637817 C44.25859261 90.25900665 44.25859261 90.25900665 42.84286499 90.26168823 C39.76885633 90.26610832 36.69490468 90.26316821 33.62089539 90.25979614 C31.49479664 90.26046914 29.36869797 90.26143912 27.24259949 90.26269531 C22.78031178 90.2641725 18.31804406 90.26201707 13.85575867 90.25735474 C8.1219397 90.25165744 2.38816753 90.25493634 -3.34564972 90.2609272 C-7.73781185 90.26453226 -12.12996279 90.26339448 -16.52212524 90.26079941 C-18.6369426 90.26012998 -20.75176096 90.26095909 -22.86657715 90.26327896 C-25.81674407 90.26580458 -28.76683408 90.26196618 -31.71699524 90.25637817 C-33.041726 90.25941452 -33.041726 90.25941452 -34.39321899 90.26251221 C-40.42109227 90.24124598 -40.42109227 90.24124598 -41.53535461 89.12698364 C-41.65009131 87.34470467 -41.69499694 85.55788712 -41.71235657 83.77200317 C-41.7251918 82.62635895 -41.73802704 81.48071472 -41.75125122 80.300354 C-41.75863815 79.04946991 -41.76602509 77.79858582 -41.77363586 76.50979614 C-41.78170761 75.22773285 -41.78977936 73.94566956 -41.7980957 72.62475586 C-41.81314968 69.8992628 -41.82297018 67.173796 -41.83052063 64.44827271 C-41.84150083 60.98406962 -41.87578841 57.52052401 -41.91569233 54.05655098 C-41.94842362 50.72849486 -41.95266322 47.40050061 -41.96113586 44.07229614 C-41.97864395 42.84165436 -41.99615204 41.61101257 -42.01419067 40.34307861 C-41.98247129 27.58009517 -38.38594786 18.34426814 -29.53535461 9.12698364 C-21.12044388 1.48206474 -11.04858205 -0.03146166 0 0 Z " fill="#C92F41" transform="translate(46.53535461425781,-0.126983642578125)"/>
<path d="M0 0 C1.32708733 0.00539291 1.32708733 0.00539291 2.6809845 0.01089478 C4.07108734 0.01067574 4.07108734 0.01067574 5.48927307 0.01045227 C8.56809285 0.01115178 11.64685295 0.01894595 14.72566223 0.02676392 C16.85415616 0.02862796 18.98265051 0.03005193 21.11114502 0.03105164 C26.72537919 0.03487789 32.33958766 0.04470909 37.95381165 0.05575562 C43.67788851 0.06596743 49.40196951 0.07054876 55.12605286 0.07559204 C66.36629855 0.08633126 77.60652513 0.10340896 88.84675598 0.12442017 C91.38534702 5.20160224 89.84675598 11.44795804 89.84675598 17.12442017 C136.70675598 17.12442017 183.56675598 17.12442017 231.84675598 17.12442017 C234.12377272 23.95547039 234.12377272 23.95547039 234.09675598 28.31192017 C234.10449036 29.5706897 234.10449036 29.5706897 234.11238098 30.85488892 C233.84675598 33.12442017 233.84675598 33.12442017 231.84675598 36.12442017 C229.3829937 36.49356365 229.3829937 36.49356365 226.21537781 36.48518372 C224.419039 36.49136971 224.419039 36.49136971 222.58641052 36.49768066 C221.25245443 36.48706258 219.9185006 36.47615814 218.58454895 36.46499634 C217.18525714 36.46415047 215.785964 36.46462442 214.38667297 36.46632385 C210.58101175 36.46718682 206.7756325 36.44951258 202.97003698 36.42860198 C198.99553693 36.40988523 195.02103086 36.4080887 191.04649353 36.40452576 C183.51706294 36.39519054 175.98776257 36.37055687 168.4583894 36.34047729 C159.88778685 36.30697913 151.31717817 36.29045883 142.74652648 36.27539098 C125.11319574 36.24400853 107.47998632 36.19121944 89.84675598 36.12442017 C89.86995911 37.18402954 89.89316223 38.24363892 89.91706848 39.33535767 C89.93582542 40.72337147 89.95402571 42.11139287 89.97175598 43.49942017 C89.9968927 44.54742798 89.9968927 44.54742798 90.02253723 45.61660767 C90.04019865 47.45339503 89.94978859 49.29043979 89.84675598 51.12442017 C87.20990658 53.76126956 85.30663899 53.36513064 81.7182312 53.3843689 C80.85894516 53.37874939 79.99965912 53.37312988 79.11433411 53.36734009 C78.21017258 53.36923843 77.30601105 53.37113678 76.37445068 53.37309265 C73.37554853 53.37680764 70.37688674 53.36608591 67.37800598 53.35488892 C65.300573 53.3536974 63.22313948 53.35324389 61.14570618 53.35350037 C56.78772112 53.35193425 52.42981807 53.3436348 48.07185364 53.33023071 C42.47603902 53.31324071 36.88031462 53.30941631 31.28447723 53.3101759 C26.99349603 53.3099044 22.70253468 53.30442657 18.41156006 53.29717445 C16.34781037 53.29398454 14.28405842 53.29201963 12.2203064 53.29128075 C9.33989096 53.28912061 6.45957256 53.2803834 3.57917786 53.26968384 C2.71989182 53.27013702 1.86060577 53.27059021 0.97528076 53.27105713 C-4.92429109 53.23889663 -4.92429109 53.23889663 -7.15324402 52.12442017 C-7.17851141 44.87955466 -7.19607582 37.63470043 -7.20817566 30.38980103 C-7.21321758 27.92299983 -7.22005092 25.45620164 -7.22868347 22.9894104 C-7.24075527 19.45237488 -7.24647358 15.91537871 -7.25090027 12.37832642 C-7.25606155 11.26792496 -7.26122284 10.1575235 -7.26654053 9.01347351 C-7.26661606 7.99249069 -7.26669159 6.97150787 -7.26676941 5.91958618 C-7.26899002 5.01579727 -7.27121063 4.11200836 -7.27349854 3.18083191 C-7.0133556 -1.26774099 -3.68797416 0.00633147 0 0 Z " fill="#CA2A3D" transform="translate(12.153244018554688,96.87557983398438)"/>
<path d="M0 0 C1.53190797 3.06381594 1.10243613 6.26965866 1.0625 9.625 C1.0514624 10.92743652 1.0404248 12.22987305 1.02905273 13.57177734 C1.01946533 14.70309082 1.00987793 15.8344043 1 17 C2.09973145 16.9292627 3.19946289 16.85852539 4.33251953 16.78564453 C21.35112758 15.78908068 38.36838999 15.84357223 55.40868759 15.87142944 C57.89498765 15.87502894 60.38128188 15.8766248 62.86758423 15.87768555 C89.92125298 15.89202255 116.95674393 16.20541812 144 17 C145.35119149 19.70238298 145.13237128 21.86014446 145.125 24.875 C145.12757813 25.92429688 145.13015625 26.97359375 145.1328125 28.0546875 C145.01909386 30.57656554 144.65341114 32.58685598 144 35 C136.02008453 35.77437679 128.1350201 36.14516383 120.11962891 36.12939453 C118.43898094 36.13202301 118.43898094 36.13202301 116.72438049 36.13470459 C113.05842492 36.13906869 109.39251848 36.136204 105.7265625 36.1328125 C103.15408316 36.1334872 100.58160388 36.1344586 98.00912476 36.13571167 C92.63140188 36.13718136 87.25369709 36.13515505 81.87597656 36.13037109 C75.69574837 36.12493605 69.51555322 36.12668985 63.33532584 36.1321975 C57.34565065 36.13731781 51.35599136 36.13673052 45.36631393 36.13381577 C42.83799612 36.133153 40.30967744 36.13395195 37.78136063 36.13629532 C12.48490627 36.15459691 12.48490627 36.15459691 1 35 C1.02320312 36.04800781 1.04640625 37.09601563 1.0703125 38.17578125 C1.08907303 39.55468037 1.10727293 40.9335872 1.125 42.3125 C1.14175781 43.00279297 1.15851563 43.69308594 1.17578125 44.40429688 C1.21217794 48.17135396 1.14378864 49.78431704 -1 53 C-3.94457368 53.29143819 -6.67845202 53.38844754 -9.62475586 53.35644531 C-10.51755753 53.35848969 -11.41035919 53.36053406 -12.33021545 53.36264038 C-15.29196416 53.36565716 -18.25316088 53.34714302 -21.21484375 53.328125 C-23.26745974 53.32506856 -25.32007779 53.32319157 -27.37269592 53.32244873 C-31.6794526 53.31783986 -35.9860229 53.30339269 -40.29272461 53.28125 C-45.81894323 53.25298498 -51.34501476 53.24204086 -56.87129879 53.2375679 C-61.11171446 53.2334142 -65.35210025 53.22359683 -69.59250069 53.21169281 C-71.63030317 53.2059868 -73.66810853 53.20122919 -75.70591545 53.19742584 C-78.55261165 53.1905646 -81.39919075 53.17693218 -84.24584961 53.16113281 C-85.09218964 53.16001495 -85.93852966 53.15889709 -86.81051636 53.15774536 C-90.12410627 53.13334165 -92.83467935 53.05510688 -96 52 C-96 34.84 -96 17.68 -96 0 C-63.92422891 -1.10131403 -32.07839979 -0.86642327 0 0 Z " fill="#CD3B4C" transform="translate(101,157)"/>
<path d="M0 0 C1.32708733 0.00539291 1.32708733 0.00539291 2.6809845 0.01089478 C4.07108734 0.01067574 4.07108734 0.01067574 5.48927307 0.01045227 C8.56809285 0.01115178 11.64685295 0.01894595 14.72566223 0.02676392 C16.85415616 0.02862796 18.98265051 0.03005193 21.11114502 0.03105164 C26.72537919 0.03487789 32.33958766 0.04470909 37.95381165 0.05575562 C43.67788851 0.06596743 49.40196951 0.07054876 55.12605286 0.07559204 C66.36629855 0.08633126 77.60652513 0.10340896 88.84675598 0.12442017 C91.38534702 5.20160224 89.84675598 11.44795804 89.84675598 17.12442017 C137.03675598 17.12442017 184.22675598 17.12442017 232.84675598 17.12442017 C233.9776776 26.17179312 233.9776776 26.17179312 233.47175598 30.06192017 C233.38152161 30.8134436 233.29128723 31.56496704 233.19831848 32.33926392 C232.84675598 34.12442017 232.84675598 34.12442017 231.84675598 35.12442017 C229.20573677 35.2311167 226.59055441 35.27220435 223.94873047 35.27159119 C223.1110475 35.27526787 222.27336452 35.27894456 221.41029721 35.28273267 C218.58076114 35.29381598 215.75126173 35.29762129 212.92170715 35.30142212 C210.90164573 35.30768362 208.88158547 35.31433013 206.86152649 35.32133484 C201.35476127 35.33878197 195.84800476 35.3493082 190.34121871 35.35754037 C186.89996613 35.3626861 183.45871626 35.36876224 180.01746559 35.3750515 C169.24902575 35.39411991 158.4805928 35.40834358 147.71213931 35.41666347 C135.28652733 35.42642181 122.86109416 35.45269779 110.43554515 35.49316436 C100.83201835 35.52336463 91.22854265 35.53813634 81.6249693 35.54144448 C75.89006813 35.54379188 70.1553576 35.55271107 64.42050743 35.57790565 C59.01719691 35.60125749 53.61420156 35.60539094 48.21085358 35.59514427 C46.2340496 35.59465041 44.25722976 35.60092627 42.28047371 35.61470032 C27.43625344 35.71229237 15.19048907 34.79126383 3.84675598 24.12442017 C-2.43864364 17.91960259 -6.17483548 9.89172807 -7.15324402 1.12442017 C-5.26439207 -0.76443179 -2.51272643 0.00431382 0 0 Z " fill="#D23345" transform="translate(12.153244018554688,215.87557983398438)"/>
<path d="M0 0 C1.55626957 -0.00101789 3.11253895 -0.00235865 4.66880798 -0.0039978 C8.79795254 -0.00667248 12.9270589 -0.0022747 17.05619812 0.00424194 C19.61262118 0.00782252 22.16903861 0.00943304 24.72546387 0.01049805 C52.42408576 0.02484197 80.10451677 0.33857555 107.79296875 1.1328125 C108.45240222 6.21554808 108.95173846 11.1208358 108.98046875 16.2578125 C108.99464844 17.41539062 109.00882813 18.57296875 109.0234375 19.765625 C108.7872198 23.21680563 107.93933453 25.88823103 106.79296875 29.1328125 C89.20842757 29.15614088 71.62389121 29.17379137 54.03933811 29.18462467 C45.87509711 29.18978776 37.7108657 29.1968307 29.54663086 29.20825195 C22.43325591 29.2181984 15.3198879 29.22466583 8.20650619 29.22690099 C4.43771151 29.22820817 0.66893672 29.23129444 -3.09985161 29.23854256 C-7.30021941 29.24655566 -11.50055233 29.24680366 -15.70092773 29.24633789 C-17.58905937 29.2517308 -17.58905937 29.2517308 -19.51533508 29.25723267 C-21.22126328 29.25517067 -21.22126328 29.25517067 -22.96165466 29.25306702 C-23.95626929 29.25398881 -24.95088392 29.2549106 -25.97563839 29.25586033 C-28.20703125 29.1328125 -28.20703125 29.1328125 -29.20703125 28.1328125 C-29.29461128 26.13316268 -29.31399701 24.1304514 -29.3046875 22.12890625 C-29.30146484 20.91396484 -29.29824219 19.69902344 -29.29492188 18.44726562 C-29.28654297 17.16787109 -29.27816406 15.88847656 -29.26953125 14.5703125 C-29.26501953 13.28705078 -29.26050781 12.00378906 -29.25585938 10.68164062 C-29.2440267 7.49865004 -29.22670479 4.31576148 -29.20703125 1.1328125 C-19.46227033 0.21540159 -9.77912622 -0.01474027 0 0 Z " fill="#141414" transform="translate(137.20703125,138.8671875)"/>
<path d="M0 0 C1.50298346 0.00138269 1.50298346 0.00138269 3.03633022 0.00279331 C4.18202984 0.00141865 5.32772945 0.00004398 6.50814724 -0.00137234 C8.41030499 0.00402058 8.41030499 0.00402058 10.35089016 0.00952244 C11.69092208 0.00980431 13.03095415 0.00964657 14.37098598 0.00907993 C18.01958415 0.00879196 21.66814971 0.01468863 25.31674027 0.02165389 C29.12576493 0.02788749 32.93479026 0.02849123 36.74381924 0.0296793 C43.96156731 0.0327926 51.17930031 0.04100597 58.39704174 0.05102879 C66.61214234 0.06218997 74.82724364 0.06770039 83.04234993 0.07272422 C99.94590528 0.08318858 116.84944593 0.10078799 133.75298977 0.12304783 C133.91833852 1.7136368 134.08188949 3.30441272 134.24468899 4.89526463 C134.33596066 5.78110737 134.42723232 6.66695011 134.5212698 7.57963657 C134.80602851 10.70521311 134.88572823 13.79760344 134.87798977 16.93554783 C134.88056789 17.99386814 134.88314602 19.05218845 134.88580227 20.14257908 C134.76204512 22.91983512 134.32923391 25.41149584 133.75298977 28.12304783 C95.97229176 29.00984116 58.28813295 29.37772428 20.50298977 28.68554783 C19.37249203 28.66599033 18.24199429 28.64643284 17.07723904 28.62628269 C13.88047913 28.56946931 10.68394168 28.50569088 7.48736477 28.43945408 C6.51639355 28.42273151 5.54542233 28.40600895 4.54502773 28.38877964 C3.66200481 28.36884449 2.7789819 28.34890934 1.86920071 28.32837009 C1.09477627 28.31282581 0.32035183 28.29728153 -0.47754002 28.28126621 C-2.24701023 28.12304783 -2.24701023 28.12304783 -3.24701023 27.12304783 C-3.34672809 25.20846501 -3.37781612 23.29022466 -3.37982273 21.37304783 C-3.38111179 20.20773533 -3.38240086 19.04242283 -3.38372898 17.84179783 C-3.37986179 16.61461033 -3.37599461 15.38742283 -3.37201023 14.12304783 C-3.37587742 12.89586033 -3.37974461 11.66867283 -3.38372898 10.40429783 C-3.38243992 9.23898533 -3.38115086 8.07367283 -3.37982273 6.87304783 C-3.3786948 5.79539158 -3.37756687 4.71773533 -3.37640476 3.60742283 C-3.21003504 0.41312415 -3.18060446 0.17417209 0 0 Z " fill="#141414" transform="translate(111.24701023101807,197.87695217132568)"/>
<path d="M0 0 C1.50298346 0.00138269 1.50298346 0.00138269 3.03633022 0.00279331 C4.18202984 0.00141865 5.32772945 0.00004398 6.50814724 -0.00137234 C8.41030499 0.00402058 8.41030499 0.00402058 10.35089016 0.00952244 C11.69092208 0.00980431 13.03095415 0.00964657 14.37098598 0.00907993 C18.01958415 0.00879196 21.66814971 0.01468863 25.31674027 0.02165389 C29.12576493 0.02788749 32.93479026 0.02849123 36.74381924 0.0296793 C43.96156731 0.0327926 51.17930031 0.04100597 58.39704174 0.05102879 C66.61214234 0.06218997 74.82724364 0.06770039 83.04234993 0.07272422 C99.94590528 0.08318858 116.84944593 0.10078799 133.75298977 0.12304783 C134.42836765 4.65183546 134.88920509 8.97909024 134.87798977 13.56054783 C134.88056789 14.61113377 134.88314602 15.6617197 134.88580227 16.74414158 C134.73609311 20.55291881 134.22577524 24.34076403 133.75298977 28.12304783 C88.87298977 28.12304783 43.99298977 28.12304783 -2.24701023 28.12304783 C-3.57115113 25.47476604 -3.37658065 23.45624671 -3.37982273 20.49414158 C-3.38111179 19.37716892 -3.38240086 18.26019627 -3.38372898 17.10937595 C-3.37986179 15.93826267 -3.37599461 14.76714939 -3.37201023 13.56054783 C-3.37587742 12.38556736 -3.37974461 11.21058689 -3.38372898 10.00000095 C-3.38243992 8.88431736 -3.38115086 7.76863377 -3.37982273 6.61914158 C-3.3786948 5.58974461 -3.37756687 4.56034763 -3.37640476 3.49975681 C-3.20642708 0.37761956 -3.11623669 0.17064727 0 0 Z " fill="#121212" transform="translate(111.24701023101807,79.87695217132568)"/>
<path d="M0 0 C1.32708733 0.00539291 1.32708733 0.00539291 2.6809845 0.01089478 C4.07108734 0.01067574 4.07108734 0.01067574 5.48927307 0.01045227 C8.56809285 0.01115178 11.64685295 0.01894595 14.72566223 0.02676392 C16.85415616 0.02862796 18.98265051 0.03005193 21.11114502 0.03105164 C26.72537919 0.03487789 32.33958766 0.04470909 37.95381165 0.05575562 C43.67788851 0.06596743 49.40196951 0.07054876 55.12605286 0.07559204 C66.36629855 0.08633126 77.60652513 0.10340896 88.84675598 0.12442017 C91.38534702 5.20160224 89.84675598 11.44795804 89.84675598 17.12442017 C136.70675598 17.12442017 183.56675598 17.12442017 231.84675598 17.12442017 C234.12377272 23.95547039 234.12377272 23.95547039 234.09675598 28.31192017 C234.10449036 29.5706897 234.10449036 29.5706897 234.11238098 30.85488892 C233.84675598 33.12442017 233.84675598 33.12442017 231.84675598 36.12442017 C229.3829937 36.49356365 229.3829937 36.49356365 226.21537781 36.48518372 C224.419039 36.49136971 224.419039 36.49136971 222.58641052 36.49768066 C221.25245443 36.48706258 219.9185006 36.47615814 218.58454895 36.46499634 C217.18525714 36.46415047 215.785964 36.46462442 214.38667297 36.46632385 C210.58101175 36.46718682 206.7756325 36.44951258 202.97003698 36.42860198 C198.99553693 36.40988523 195.02103086 36.4080887 191.04649353 36.40452576 C183.51706294 36.39519054 175.98776257 36.37055687 168.4583894 36.34047729 C159.88778685 36.30697913 151.31717817 36.29045883 142.74652648 36.27539098 C125.11319574 36.24400853 107.47998632 36.19121944 89.84675598 36.12442017 C89.86995911 37.18402954 89.89316223 38.24363892 89.91706848 39.33535767 C89.93582542 40.72337147 89.95402571 42.11139287 89.97175598 43.49942017 C89.9968927 44.54742798 89.9968927 44.54742798 90.02253723 45.61660767 C90.04019865 47.45339503 89.94978859 49.29043979 89.84675598 51.12442017 C87.20990658 53.76126956 85.30663899 53.36513064 81.7182312 53.3843689 C80.85894516 53.37874939 79.99965912 53.37312988 79.11433411 53.36734009 C78.21017258 53.36923843 77.30601105 53.37113678 76.37445068 53.37309265 C73.37554853 53.37680764 70.37688674 53.36608591 67.37800598 53.35488892 C65.300573 53.3536974 63.22313948 53.35324389 61.14570618 53.35350037 C56.78772112 53.35193425 52.42981807 53.3436348 48.07185364 53.33023071 C42.47603902 53.31324071 36.88031462 53.30941631 31.28447723 53.3101759 C26.99349603 53.3099044 22.70253468 53.30442657 18.41156006 53.29717445 C16.34781037 53.29398454 14.28405842 53.29201963 12.2203064 53.29128075 C9.33989096 53.28912061 6.45957256 53.2803834 3.57917786 53.26968384 C2.71989182 53.27013702 1.86060577 53.27059021 0.97528076 53.27105713 C-4.92429109 53.23889663 -4.92429109 53.23889663 -7.15324402 52.12442017 C-7.17851141 44.87955466 -7.19607582 37.63470043 -7.20817566 30.38980103 C-7.21321758 27.92299983 -7.22005092 25.45620164 -7.22868347 22.9894104 C-7.24075527 19.45237488 -7.24647358 15.91537871 -7.25090027 12.37832642 C-7.25606155 11.26792496 -7.26122284 10.1575235 -7.26654053 9.01347351 C-7.26661606 7.99249069 -7.26669159 6.97150787 -7.26676941 5.91958618 C-7.26899002 5.01579727 -7.27121063 4.11200836 -7.27349854 3.18083191 C-7.0133556 -1.26774099 -3.68797416 0.00633147 0 0 Z M-5.15324402 2.12442017 C-5.15324402 17.63442017 -5.15324402 33.14442017 -5.15324402 49.12442017 C-0.21898846 49.94679609 4.2833574 50.26126873 9.23884583 50.23794556 C10.05902191 50.23809158 10.879198 50.23823761 11.72422791 50.23838806 C14.41874391 50.23769478 17.11318965 50.22992989 19.80769348 50.22207642 C21.68241844 50.22021016 23.55714389 50.21878724 25.43186951 50.2177887 C30.35391091 50.21397989 35.27592257 50.20416363 40.19795227 50.19308472 C45.225414 50.18283536 50.25288056 50.17828353 55.28034973 50.17324829 C65.13583151 50.16253985 74.99129127 50.14548314 84.84675598 50.12442017 C84.84675598 49.13442017 84.84675598 48.14442017 84.84675598 47.12442017 C85.50675598 47.12442017 86.16675598 47.12442017 86.84675598 47.12442017 C88.55874664 43.99710163 88.55874664 43.99710163 88.84675598 35.12442017 C136.03675598 34.79442017 183.22675598 34.46442017 231.84675598 34.12442017 C231.84675598 29.17442017 231.84675598 24.22442017 231.84675598 19.12442017 C161.06175598 18.62942017 161.06175598 18.62942017 88.84675598 18.12442017 C88.51675598 12.84442017 88.18675598 7.56442017 87.84675598 2.12442017 C57.15675598 2.12442017 26.46675598 2.12442017 -5.15324402 2.12442017 Z " fill="#E69DA6" transform="translate(12.153244018554688,96.87557983398438)"/>
<path d="M0 0 C0.33 0 0.66 0 1 0 C1.02505615 1.19488037 1.0501123 2.38976074 1.07592773 3.62084961 C1.17067491 8.0882288 1.27072645 12.55547665 1.37231445 17.02270508 C1.41541043 18.94975698 1.45710127 20.87684087 1.49731445 22.80395508 C1.55563642 25.58684904 1.61914646 28.36958569 1.68359375 31.15234375 C1.70030624 32.00271713 1.71701874 32.85309052 1.73423767 33.72923279 C1.85189971 38.56763477 2.1868623 43.31698298 2.78283691 48.12072754 C3.16495096 51.42744243 3.06041936 54.67693524 3 58 C3.81312653 57.83544815 4.62625305 57.6708963 5.46401978 57.50135803 C9.5279106 56.92514884 13.48449788 56.9105931 17.57568359 56.97827148 C18.41536682 56.98787903 19.25505005 56.99748657 20.12017822 57.00738525 C22.87968765 57.04021442 25.6390307 57.08060737 28.3984375 57.12109375 C30.31799747 57.14541061 32.23756351 57.16925337 34.15713501 57.19264221 C39.19760058 57.25532737 44.23795822 57.32443778 49.27832031 57.39489746 C54.4263825 57.46572187 59.57452091 57.53045429 64.72265625 57.59570312 C74.81519031 57.7245147 84.90760554 57.86067908 95 58 C95 52.72 95 47.44 95 42 C142.52 42 190.04 42 239 42 C239 36.72 239 31.44 239 26 C235.1554718 26.01665459 235.1554718 26.01665459 231.23327637 26.03364563 C207.10133169 26.13579632 182.96941551 26.21021836 158.83730316 26.25906086 C146.43018558 26.28483997 134.02322667 26.31998521 121.61621094 26.37719727 C110.80197179 26.42704083 99.98784755 26.45929314 89.17349672 26.47044247 C83.44758662 26.47695953 77.72200528 26.49227094 71.99620056 26.52865028 C66.60519769 26.56262446 61.21465856 26.57304991 55.82355881 26.56553841 C53.84667311 26.5669123 51.86977168 26.57683611 49.89297867 26.59602737 C47.18895085 26.62098795 44.48666273 26.61489461 41.78259277 26.60127258 C41.00436016 26.61583679 40.22612754 26.630401 39.42431211 26.64540654 C33.67106969 26.56732296 29.32738718 24.8691106 25 21 C23.7764945 18.83047372 23.7764945 18.83047372 23 17 C23.47050781 17.34933594 23.94101562 17.69867188 24.42578125 18.05859375 C25.04839844 18.51363281 25.67101562 18.96867187 26.3125 19.4375 C26.92738281 19.88996094 27.54226562 20.34242187 28.17578125 20.80859375 C32.27689507 23.48705138 36.46189112 23.14705613 41.16786194 23.14476013 C42.01022587 23.14828698 42.8525898 23.15181382 43.72047991 23.15544754 C46.55332348 23.16615313 49.38613346 23.1698187 52.21899414 23.17358398 C54.24572391 23.17988765 56.27245228 23.18665324 58.29917908 23.19384766 C62.66825637 23.20852792 67.03732827 23.22024829 71.40641975 23.22979546 C78.3088496 23.24522234 85.21123326 23.2691697 92.1136322 23.29469299 C111.74279874 23.36596903 131.37199147 23.42576067 151.0012207 23.47680664 C161.83852709 23.50506448 172.67578727 23.5404181 183.51304525 23.58346039 C190.3809352 23.61030463 197.24877287 23.62816526 204.11670506 23.63949764 C208.38115953 23.64859352 212.64555017 23.66594043 216.90996742 23.68567657 C218.89417777 23.69317905 220.87840445 23.69723475 222.86262894 23.69767189 C225.56158788 23.69874706 228.26021846 23.71192795 230.9591217 23.72825623 C231.75278501 23.72563937 232.54644832 23.72302252 233.36416203 23.72032636 C238.77178545 23.77178545 238.77178545 23.77178545 241 26 C241.17170903 28.72697223 241.2324568 31.33906468 241.1875 34.0625 C241.1865332 35.18108398 241.1865332 35.18108398 241.18554688 36.32226562 C241.14028159 41.85971841 241.14028159 41.85971841 240 43 C238.15238732 43.09648248 236.3010419 43.12187318 234.45091248 43.12025452 C233.24631378 43.12162918 232.04171509 43.12300385 230.8006134 43.12442017 C229.45358252 43.12088056 228.10655188 43.11724575 226.75952148 43.11352539 C225.35052492 43.11324352 223.94152821 43.11340125 222.53253174 43.1139679 C218.6959237 43.11425589 214.85934666 43.10835894 211.02274585 43.10139394 C207.01753059 43.09516063 203.0123147 43.09455662 199.00709534 43.09336853 C191.41747996 43.09025515 183.82787892 43.08204167 176.23826987 43.07201904 C167.59996076 43.06085812 158.96165099 43.05534751 150.32333648 43.05032361 C132.54888285 43.03985906 114.77444258 43.02225948 97 43 C97.01160156 44.14339844 97.02320312 45.28679687 97.03515625 46.46484375 C97.04453288 47.95572754 97.05363321 49.44661309 97.0625 50.9375 C97.07087891 51.69224609 97.07925781 52.44699219 97.08789062 53.22460938 C97.09652441 55.14994313 97.05224333 57.07535581 97 59 C95.11342329 60.88657671 92.36827497 60.12667188 89.85786438 60.13552856 C88.53313362 60.13249222 88.53313362 60.13249222 87.18164062 60.12939453 C85.79394722 60.13202301 85.79394722 60.13202301 84.3782196 60.13470459 C81.30421095 60.13912467 78.2302593 60.13618457 75.15625 60.1328125 C73.03015125 60.13348549 70.90405258 60.13445548 68.7779541 60.13571167 C64.3156664 60.13718886 59.85339867 60.13503342 55.39111328 60.13037109 C49.65729431 60.1246738 43.92352215 60.12795269 38.1897049 60.13394356 C33.79754277 60.13754861 29.40539183 60.13641084 25.01322937 60.13381577 C22.89841201 60.13314634 20.78359366 60.13397545 18.66877747 60.13629532 C15.71861054 60.13882093 12.76852054 60.13498254 9.81835938 60.12939453 C8.49362862 60.13243088 8.49362862 60.13243088 7.14213562 60.13552856 C1.11426234 60.11426234 1.11426234 60.11426234 0 59 C-0.09381302 57.15881971 -0.11743954 55.31402359 -0.11352539 53.47045898 C-0.11344986 52.28931015 -0.11337433 51.10816132 -0.11329651 49.89122009 C-0.10813522 48.6058284 -0.10297394 47.32043671 -0.09765625 45.99609375 C-0.0962413 44.68794205 -0.09482635 43.37979034 -0.09336853 42.03199768 C-0.0895441 38.54837141 -0.07971446 35.06478661 -0.06866455 31.58117676 C-0.05844882 28.02873292 -0.05387056 24.47628241 -0.04882812 20.92382812 C-0.03809212 13.94920168 -0.0210166 6.97460283 0 0 Z " fill="#ECA4AC" transform="translate(5,30)"/>
<path d="M0 0 C1.32708733 0.00539291 1.32708733 0.00539291 2.6809845 0.01089478 C4.07108734 0.01067574 4.07108734 0.01067574 5.48927307 0.01045227 C8.56809285 0.01115178 11.64685295 0.01894595 14.72566223 0.02676392 C16.85415616 0.02862796 18.98265051 0.03005193 21.11114502 0.03105164 C26.72537919 0.03487789 32.33958766 0.04470909 37.95381165 0.05575562 C43.67788851 0.06596743 49.40196951 0.07054876 55.12605286 0.07559204 C66.36629855 0.08633126 77.60652513 0.10340896 88.84675598 0.12442017 C91.38534702 5.20160224 89.84675598 11.44795804 89.84675598 17.12442017 C137.03675598 17.12442017 184.22675598 17.12442017 232.84675598 17.12442017 C233.9776776 26.17179312 233.9776776 26.17179312 233.47175598 30.06192017 C233.38152161 30.8134436 233.29128723 31.56496704 233.19831848 32.33926392 C232.84675598 34.12442017 232.84675598 34.12442017 231.84675598 35.12442017 C229.20573677 35.2311167 226.59055441 35.27220435 223.94873047 35.27159119 C223.1110475 35.27526787 222.27336452 35.27894456 221.41029721 35.28273267 C218.58076114 35.29381598 215.75126173 35.29762129 212.92170715 35.30142212 C210.90164573 35.30768362 208.88158547 35.31433013 206.86152649 35.32133484 C201.35476127 35.33878197 195.84800476 35.3493082 190.34121871 35.35754037 C186.89996613 35.3626861 183.45871626 35.36876224 180.01746559 35.3750515 C169.24902575 35.39411991 158.4805928 35.40834358 147.71213931 35.41666347 C135.28652733 35.42642181 122.86109416 35.45269779 110.43554515 35.49316436 C100.83201835 35.52336463 91.22854265 35.53813634 81.6249693 35.54144448 C75.89006813 35.54379188 70.1553576 35.55271107 64.42050743 35.57790565 C59.01719691 35.60125749 53.61420156 35.60539094 48.21085358 35.59514427 C46.2340496 35.59465041 44.25722976 35.60092627 42.28047371 35.61470032 C17.37886745 35.7784138 17.37886745 35.7784138 7.65925598 27.49942017 C6.94382629 26.90902954 6.22839661 26.31863892 5.49128723 25.71035767 C3.84675598 24.12442017 3.84675598 24.12442017 2.84675598 22.12442017 C6.77086135 22.67196975 10.32191522 23.26408754 13.84675598 25.12442017 C15.15925598 27.24942017 15.15925598 27.24942017 15.84675598 29.12442017 C17.16675598 28.46442017 18.48675598 27.80442017 19.84675598 27.12442017 C19.84675598 28.11442017 19.84675598 29.10442017 19.84675598 30.12442017 C31.84187587 31.94828886 43.53979939 32.42971044 55.65534973 32.44326782 C57.58872384 32.45258949 59.52209401 32.46276139 61.45545959 32.47370911 C66.65268516 32.50077115 71.84988401 32.51608708 77.0471611 32.52913713 C82.49772421 32.54487298 87.94823354 32.5716293 93.39875793 32.59716797 C103.69716798 32.64377205 113.99558835 32.68060451 124.29404926 32.71384084 C136.02820874 32.75219279 147.76231395 32.80156829 159.49642754 32.851825 C183.61316411 32.95487131 207.72993481 33.0438287 231.84675598 33.12442017 C231.84675598 28.17442017 231.84675598 23.22442017 231.84675598 18.12442017 C184.32675598 18.12442017 136.80675598 18.12442017 87.84675598 18.12442017 C87.84675598 12.84442017 87.84675598 7.56442017 87.84675598 2.12442017 C57.15675598 2.12442017 26.46675598 2.12442017 -5.15324402 2.12442017 C-4.82324402 4.76442017 -4.49324402 7.40442017 -4.15324402 10.12442017 C-6.28586526 6.92548831 -6.7434595 4.89443774 -7.15324402 1.12442017 C-5.26439207 -0.76443179 -2.51272643 0.00431382 0 0 Z " fill="#F8A6AE" transform="translate(12.153244018554688,215.87557983398438)"/>
<path d="M0 0 C0.73397538 0.63623637 0.73397538 0.63623637 1.48277855 1.285326 C10.27948867 7.75884436 19.6134697 6.84332688 30.04541016 6.77294922 C32.07642793 6.78112795 34.10743656 6.79193492 36.13842773 6.80516052 C41.62958658 6.83351876 47.12014375 6.82526998 52.61133242 6.81029272 C58.35825085 6.80089503 64.10502421 6.82537973 69.85189819 6.84622192 C80.72432283 6.88052965 91.59653704 6.88450441 102.46900499 6.87749684 C114.85116908 6.87099944 127.2331858 6.89844588 139.61530614 6.92869925 C165.07689258 6.99015169 190.53834878 7.00791734 216 7 C216 12.28 216 17.56 216 23 C168.48 23 120.96 23 72 23 C72 22.67 72 22.34 72 22 C80.64206517 21.22587003 89.19628509 20.85484613 97.87109375 20.87060547 C99.08415695 20.86885315 100.29722015 20.86710083 101.54704285 20.86529541 C104.82957587 20.86168413 108.11206762 20.86247897 111.39459991 20.8656745 C114.84754005 20.8682318 118.30047771 20.86585169 121.75341797 20.86428833 C127.53955571 20.86247834 133.32568062 20.86484411 139.11181641 20.86962891 C145.79268445 20.87508992 152.47352205 20.87329088 159.15438938 20.8678025 C164.9126464 20.86326248 170.67089426 20.86262457 176.42915249 20.86524117 C179.859176 20.8667964 183.28918519 20.86701799 186.71920776 20.86370468 C190.53418045 20.86116947 194.34909421 20.86503016 198.1640625 20.87060547 C199.29450485 20.86858124 200.4249472 20.86655701 201.58964539 20.86447144 C202.62950089 20.86729126 203.66935638 20.87011108 204.74072266 20.87301636 C205.64102203 20.87339338 206.54132141 20.87377041 207.46890259 20.87415886 C210 21 210 21 215 22 C214.34 17.71 213.68 13.42 213 9 C211.45859392 9.00414807 211.45859392 9.00414807 209.88604832 9.00837994 C184.87234253 9.07500383 159.85864827 9.12428928 134.84487247 9.15543652 C122.74835619 9.17089976 110.65189856 9.19197901 98.55541992 9.22631836 C88.01108636 9.25623721 77.46679527 9.27557894 66.92242044 9.28226548 C61.34021047 9.2861735 55.758122 9.29534679 50.175951 9.31719017 C44.91880862 9.33759448 39.66183749 9.34382578 34.40465927 9.33932304 C32.47819907 9.34014647 30.55173297 9.34608852 28.62530708 9.35761642 C25.98767268 9.37262235 23.35067829 9.36892427 20.71302795 9.36076355 C19.95716292 9.36950207 19.20129789 9.3782406 18.42252785 9.38724393 C12.84777812 9.34087207 8.18405474 8.00686996 3 6 C3 5.34 3 4.68 3 4 C2.01 4 1.02 4 0 4 C0 2.68 0 1.36 0 0 Z " fill="#D34154" transform="translate(28,49)"/>
<path d="M0 0 C68.31 0 136.62 0 207 0 C207 5.61 207 11.22 207 17 C203.12668694 17.00879936 203.12668694 17.00879936 199.17512512 17.01777649 C174.88026065 17.07438684 150.58548559 17.14743737 126.29071522 17.23571491 C113.79953161 17.28070582 101.30837672 17.3201129 88.81713867 17.34643555 C77.93145968 17.36938892 67.04587133 17.40275714 56.16026419 17.44870156 C50.39489781 17.47266963 44.62962141 17.49137493 38.86420631 17.49761391 C33.43957812 17.50364852 28.01518025 17.5235896 22.59063721 17.55427551 C20.59802027 17.5630818 18.60537327 17.56677298 16.61273766 17.56500816 C13.89482169 17.56336077 11.1776123 17.58000897 8.45979309 17.60127258 C7.668931 17.59642501 6.87806891 17.59157743 6.0632413 17.58658296 C1.47467837 17.64594118 -1.26877206 18.34618717 -5 21 C-6.98451771 21.71143088 -8.98202112 22.38991336 -11 23 C-11.33 21.68 -11.66 20.36 -12 19 C-8.04 18.505 -8.04 18.505 -4 18 C-4 17.34 -4 16.68 -4 16 C0.64082545 15.25370023 5.06586381 14.8836364 9.7641449 14.91770935 C10.40716004 14.92093848 11.05017518 14.92416761 11.71267563 14.92749459 C13.84684414 14.93946715 15.98087744 14.95886008 18.11499023 14.97827148 C19.65294612 14.98842518 21.1909051 14.99811765 22.72886658 15.00738525 C26.88951937 15.03375709 31.05009928 15.06655838 35.21069598 15.10053515 C39.56419014 15.13498675 43.91772317 15.16349605 48.27125549 15.19264221 C56.50881021 15.24869083 64.74631626 15.31006485 72.98381811 15.37336355 C82.36466826 15.44518784 91.74555728 15.51105801 101.12645423 15.57643402 C120.41768679 15.71100881 139.70885801 15.85304143 159 16 C159.33 15.34 159.66 14.68 160 14 C160 14.66 160 15.32 160 16 C182.275 15.505 182.275 15.505 205 15 C205.67082039 6.59628479 205.67082039 6.59628479 203 2 C201.44891509 2.00276538 201.44891509 2.00276538 199.86649513 2.00558662 C174.7384011 2.04993008 149.61031213 2.08282503 124.48218727 2.10362434 C112.33055864 2.11394935 100.17895582 2.12803299 88.02734375 2.15087891 C77.43949599 2.17077539 66.85166691 2.18370752 56.26380098 2.18817699 C50.65445734 2.19079073 45.04516716 2.19695942 39.43584061 2.21146011 C34.16150889 2.22498498 28.88725291 2.22923302 23.6129055 2.22621536 C21.67222241 2.22676782 19.73153691 2.23077548 17.79086876 2.23841095 C15.15090005 2.24829258 12.5112211 2.2459939 9.87124634 2.24050903 C9.09499141 2.24633472 8.31873649 2.2521604 7.51895869 2.25816262 C2.22824242 2.22824242 2.22824242 2.22824242 0 0 Z " fill="#9F192E" transform="translate(37,2)"/>
<path d="M0 0 C1.32708733 0.00539291 1.32708733 0.00539291 2.6809845 0.01089478 C4.07108734 0.01067574 4.07108734 0.01067574 5.48927307 0.01045227 C8.56809285 0.01115178 11.64685295 0.01894595 14.72566223 0.02676392 C16.85415616 0.02862796 18.98265051 0.03005193 21.11114502 0.03105164 C26.72537919 0.03487789 32.33958766 0.04470909 37.95381165 0.05575562 C43.67788851 0.06596743 49.40196951 0.07054876 55.12605286 0.07559204 C66.36629855 0.08633126 77.60652513 0.10340896 88.84675598 0.12442017 C91.38534702 5.20160224 89.84675598 11.44795804 89.84675598 17.12442017 C137.03675598 17.12442017 184.22675598 17.12442017 232.84675598 17.12442017 C233.97175598 26.12442017 233.97175598 26.12442017 232.84675598 30.12442017 C232.51675598 30.12442017 232.18675598 30.12442017 231.84675598 30.12442017 C231.84675598 26.16442017 231.84675598 22.20442017 231.84675598 18.12442017 C184.32675598 18.12442017 136.80675598 18.12442017 87.84675598 18.12442017 C87.84675598 12.84442017 87.84675598 7.56442017 87.84675598 2.12442017 C57.15675598 2.12442017 26.46675598 2.12442017 -5.15324402 2.12442017 C-4.82324402 4.76442017 -4.49324402 7.40442017 -4.15324402 10.12442017 C-6.28586526 6.92548831 -6.7434595 4.89443774 -7.15324402 1.12442017 C-5.26439207 -0.76443179 -2.51272643 0.00431382 0 0 Z " fill="#E4A7AE" transform="translate(12.153244018554688,215.87557983398438)"/>
<path d="M0 0 C31.35 0 62.7 0 95 0 C95 5.94 95 11.88 95 18 C94.67 18 94.34 18 94 18 C94 12.72 94 7.44 94 2 C63.31 2 32.62 2 1 2 C1.33 5.96 1.66 9.92 2 14 C2.08228593 16.77257002 2.13041865 19.54652272 2.1328125 22.3203125 C2.13376923 23.03105927 2.13472595 23.74180603 2.13571167 24.47409058 C2.13638209 25.94757172 2.13460896 27.42105604 2.13037109 28.89453125 C2.12492459 31.15631555 2.1303955 33.41790853 2.13671875 35.6796875 C2.13605933 37.12239627 2.13478101 38.56510492 2.1328125 40.0078125 C2.13168457 41.30348145 2.13055664 42.59915039 2.12939453 43.93408203 C2 47 2 47 1 49 C1.98003998 48.99777939 2.96007996 48.99555878 3.96981812 48.99327087 C13.23787201 48.97293656 22.50592134 48.95797847 31.77399254 48.94818783 C36.53797719 48.94298505 41.30194374 48.93593506 46.06591797 48.92456055 C50.66950278 48.91363865 55.27307025 48.90770357 59.87666702 48.90512276 C61.62678932 48.9032852 63.37691075 48.8996971 65.1270256 48.89426994 C73.82058547 48.86840048 82.36042551 48.89029465 91 50 C91 49.01 91 48.02 91 47 C91.66 47 92.32 47 93 47 C93.495 46.01 93.495 46.01 94 45 C94 46.98 94 48.96 94 51 C62.98 51 31.96 51 0 51 C0 34.17 0 17.34 0 0 Z " fill="#C06A77" transform="translate(6,97)"/>
<path d="M0 0 C30.69 0 61.38 0 93 0 C93.495 7.92 93.495 7.92 94 16 C164.785 16.495 164.785 16.495 237 17 C237 18.65 237 20.3 237 22 C236.67 20.68 236.34 19.36 236 18 C219.12692906 18.10752634 202.25390268 18.22033745 185.38090897 18.33933926 C177.54545759 18.39447958 169.71000166 18.44792866 161.87451172 18.49731445 C155.04044116 18.54039285 148.20640152 18.58672788 141.37237906 18.63687855 C137.75807184 18.66329051 134.14377 18.68813619 130.52942657 18.70907402 C126.48213682 18.7325812 122.4349322 18.7633632 118.38769531 18.79467773 C116.61499016 18.80331093 116.61499016 18.80331093 114.80647278 18.81211853 C102.22824966 18.64601027 102.22824966 18.64601027 90 21 C90.020625 20.236875 90.04125 19.47375 90.0625 18.6875 C90.12942841 15.89814214 90.12942841 15.89814214 89 13 C89.66 12.34 90.32 11.68 91 11 C91.0992716 9.04330097 91.0992716 9.04330097 90.75 6.9375 C90.66234375 6.22464844 90.5746875 5.51179688 90.484375 4.77734375 C90.32453125 4.19082031 90.1646875 3.60429688 90 3 C87.23998031 1.61999016 85.11694492 2.34179661 82.16796875 2.84375 C80 3 80 3 77.82453918 2.51686096 C74.38333391 1.88715659 71.13880297 1.88051311 67.6394043 1.88647461 C66.55566277 1.88625557 66.55566277 1.88625557 65.45002747 1.8860321 C63.07472678 1.88672578 60.69950565 1.89449255 58.32421875 1.90234375 C56.67226708 1.90420987 55.02031485 1.90563286 53.36836243 1.90663147 C49.02992208 1.91044139 44.69151545 1.92025861 40.35308838 1.93133545 C35.92224585 1.9415824 31.49139785 1.94613612 27.06054688 1.95117188 C18.37368248 1.96188229 9.68684544 1.97894034 1 2 C0.67 3.32 0.34 4.64 0 6 C0 4.02 0 2.04 0 0 Z " fill="#B4273C" transform="translate(7,99)"/>
<path d="M0 0 C47.52 0 95.04 0 144 0 C144 4.95 144 9.9 144 15 C142.02 15 140.04 15 138 15 C138.99 14.01 139.98 13.02 141 12 C141.66 8.7 142.32 5.4 143 2 C95.81 2 48.62 2 0 2 C0 1.34 0 0.68 0 0 Z " fill="#CF5765" transform="translate(100,234)"/>
<path d="M0 0 C1.20847603 -0.0061849 1.20847603 -0.0061849 2.44136572 -0.01249474 C5.12064781 -0.02137105 7.79893606 -0.00182274 10.47814941 0.01777649 C12.40721251 0.01726732 14.33627581 0.01500922 16.26533508 0.01113892 C21.49057838 0.00572959 26.71546575 0.0251054 31.94064522 0.04923987 C37.41549689 0.07057267 42.89034775 0.06994271 48.36523438 0.07192993 C57.55837101 0.07837325 66.75137439 0.09960314 75.94445801 0.13105774 C87.73415744 0.17134441 99.52377005 0.188747 111.31352997 0.19836712 C121.46223638 0.20667892 131.61092453 0.2239112 141.75961494 0.24340463 C143.93480437 0.24744951 146.10999439 0.2511897 148.28518486 0.25462699 C154.48792327 0.26443774 160.69061024 0.27897697 166.89331627 0.30146599 C168.77019982 0.30756755 170.64708954 0.31202924 172.52398109 0.31470871 C175.09130385 0.31871665 177.65853251 0.32885999 180.22583008 0.34057617 C180.9635872 0.34039181 181.70134433 0.34020745 182.46145773 0.3400175 C187.25422381 0.37066104 191.86603766 0.81746375 196.61291504 1.48774719 C196.61291504 1.81774719 196.61291504 2.14774719 196.61291504 2.48774719 C128.63291504 2.48774719 60.65291504 2.48774719 -9.38708496 2.48774719 C-9.71708496 3.47774719 -10.04708496 4.46774719 -10.38708496 5.48774719 C-12.32458496 6.30024719 -12.32458496 6.30024719 -14.38708496 6.48774719 C-15.04708496 5.82774719 -15.70708496 5.16774719 -16.38708496 4.48774719 C-10.63191213 1.22666187 -6.57092652 -0.09769897 0 0 Z " fill="#B24A58" transform="translate(46.3870849609375,-0.4877471923828125)"/>
<path d="M0 0 C67.98 0 135.96 0 206 0 C206 1.98 206 3.96 206 6 C204 5 204 5 203 2 C201.44891509 2.00276538 201.44891509 2.00276538 199.86649513 2.00558662 C174.7384011 2.04993008 149.61031213 2.08282503 124.48218727 2.10362434 C112.33055864 2.11394935 100.17895582 2.12803299 88.02734375 2.15087891 C77.43949599 2.17077539 66.85166691 2.18370752 56.26380098 2.18817699 C50.65445734 2.19079073 45.04516716 2.19695942 39.43584061 2.21146011 C34.16150889 2.22498498 28.88725291 2.22923302 23.6129055 2.22621536 C21.67222241 2.22676782 19.73153691 2.23077548 17.79086876 2.23841095 C15.15090005 2.24829258 12.5112211 2.2459939 9.87124634 2.24050903 C9.09499141 2.24633472 8.31873649 2.2521604 7.51895869 2.25816262 C2.22824242 2.22824242 2.22824242 2.22824242 0 0 Z " fill="#950920" transform="translate(37,2)"/>
<path d="M0 0 C30.69 0 61.38 0 93 0 C93 5.28 93 10.56 93 16 C92.01 16 91.02 16 90 16 C90.33 15.01 90.66 14.02 91 13 C90.01 12.01 90.01 12.01 89 11 C89.66 10.34 90.32 9.68 91 9 C91 6.69 91 4.38 91 2 C63.94 1.67 36.88 1.34 9 1 C9 1.66 9 2.32 9 3 C8.34 3 7.68 3 7 3 C6.34 5.64 5.68 8.28 5 11 C4.34 10.01 3.68 9.02 3 8 C2.34 8 1.68 8 1 8 C0.67 5.36 0.34 2.72 0 0 Z " fill="#9B162C" transform="translate(7,218)"/>
<path d="M0 0 C30.69 0 61.38 0 93 0 C93 3.3 93 6.6 93 10 C92.34 10.33 91.68 10.66 91 11 C90.8046875 8.94921875 90.609375 6.8984375 90.4140625 4.84765625 C90.20910156 3.93306641 90.20910156 3.93306641 90 3 C87.23998031 1.61999016 85.11694492 2.34179661 82.16796875 2.84375 C80 3 80 3 77.82453918 2.51686096 C74.38333391 1.88715659 71.13880297 1.88051311 67.6394043 1.88647461 C66.55566277 1.88625557 66.55566277 1.88625557 65.45002747 1.8860321 C63.07472678 1.88672578 60.69950565 1.89449255 58.32421875 1.90234375 C56.67226708 1.90420987 55.02031485 1.90563286 53.36836243 1.90663147 C49.02992208 1.91044139 44.69151545 1.92025861 40.35308838 1.93133545 C35.92224585 1.9415824 31.49139785 1.94613612 27.06054688 1.95117188 C18.37368248 1.96188229 9.68684544 1.97894034 1 2 C0.67 3.32 0.34 4.64 0 6 C0 4.02 0 2.04 0 0 Z " fill="#9E0C21" transform="translate(7,99)"/>
<path d="M0 0 C31.02 0 62.04 0 94 0 C94 5.28 94 10.56 94 16 C92 14 92 14 91.8046875 11.1796875 C91.82789062 10.08914062 91.85109375 8.99859375 91.875 7.875 C91.89304687 6.77929688 91.91109375 5.68359375 91.9296875 4.5546875 C91.95289062 3.71164063 91.97609375 2.86859375 92 2 C81.47345762 1.9768637 70.94692125 1.95907832 60.42035866 1.94818783 C55.53283416 1.94296183 50.64532701 1.93586929 45.7578125 1.92456055 C41.04403894 1.91372165 36.3302821 1.90772103 31.61649704 1.90512276 C29.8151053 1.90327032 28.01371451 1.89965317 26.21232986 1.89426994 C23.69573209 1.88704624 21.17920407 1.88600963 18.66259766 1.88647461 C17.53726875 1.8810817 17.53726875 1.8810817 16.38920593 1.87557983 C12.5681684 1.81575895 12.5681684 1.81575895 9 3 C8.360625 2.79375 7.72125 2.5875 7.0625 2.375 C6.381875 2.25125 5.70125 2.1275 5 2 C3.16666667 3.16666667 3.16666667 3.16666667 2 5 C2 5.99 2 6.98 2 8 C1.34 8 0.68 8 0 8 C0 5.36 0 2.72 0 0 Z " fill="#9F2034" transform="translate(6,158)"/>
<path d="M0 0 C0.33 0 0.66 0 1 0 C3.28571429 13.42857143 3.28571429 13.42857143 1 18 C2.47005997 17.99666908 2.47005997 17.99666908 3.96981812 17.99327087 C13.23787201 17.97293656 22.50592134 17.95797847 31.77399254 17.94818783 C36.53797719 17.94298505 41.30194374 17.93593506 46.06591797 17.92456055 C50.66950278 17.91363865 55.27307025 17.90770357 59.87666702 17.90512276 C61.62678932 17.9032852 63.37691075 17.8996971 65.1270256 17.89426994 C73.82058547 17.86840048 82.36042551 17.89029465 91 19 C91 18.01 91 17.02 91 16 C91.66 16 92.32 16 93 16 C93.33 15.34 93.66 14.68 94 14 C94 15.98 94 17.96 94 20 C62.98 20 31.96 20 0 20 C0 13.4 0 6.8 0 0 Z " fill="#E25461" transform="translate(6,128)"/>
<path d="M0 0 C0.33 0 0.66 0 1 0 C1 5.28 1 10.56 1 16 C-26.72 16 -54.44 16 -83 16 C-83 15.67 -83 15.34 -83 15 C-81.98744644 14.98969254 -80.97489288 14.97938507 -79.93165588 14.96876526 C-70.41055996 14.87120265 -60.8895319 14.76848529 -51.36854649 14.66066074 C-46.47317875 14.60538835 -41.5778051 14.55196159 -36.68237305 14.50268555 C-31.96206724 14.45510549 -27.24183646 14.40276525 -22.5216198 14.34705925 C-20.71663203 14.32660678 -18.91162365 14.30789859 -17.10659981 14.29092598 C-14.58734784 14.26694571 -12.06823902 14.23688289 -9.54907227 14.20532227 C-8.79525772 14.1995668 -8.04144318 14.19381134 -7.26478577 14.18788147 C-3.84298079 14.4414287 -3.84298079 14.4414287 -1 13 C-0.92769007 10.18443216 -1.00376369 7.38207789 -1.0625 4.56640625 C-1 2 -1 2 0 0 Z " fill="#E7525F" transform="translate(99,72)"/>
<path d="M0 0 C3.92410537 0.54754959 7.47515924 1.13966738 11 3 C12.3125 5.125 12.3125 5.125 13 7 C14.32 6.34 15.64 5.68 17 5 C17 5.99 17 6.98 17 8 C22.28 8.66 27.56 9.32 33 10 C33 10.33 33 10.66 33 11 C30.16560863 11.10901505 27.33549797 11.18777904 24.5 11.25 C23.31277344 11.30027344 23.31277344 11.30027344 22.1015625 11.3515625 C14.42641019 11.47738467 8.70697569 8.95142024 3 3.8125 C2.4225 3.30332031 1.845 2.79414063 1.25 2.26953125 C0 1 0 1 0 0 Z " fill="#EA8F98" transform="translate(15,238)"/>
<path d="M0 0 C0.98888347 3.09815547 0.93552041 4.91451868 0.0703125 8.0234375 C-1.76455185 16.42064024 -1.2089325 25.07813791 -1.125 33.625 C-1.11495103 35.41015123 -1.10582857 37.19530794 -1.09765625 38.98046875 C-1.0757925 43.32044931 -1.04136815 47.66016332 -1 52 C-1.66 52 -2.32 52 -3 52 C-3.07631846 45.71956197 -3.12871221 39.43924438 -3.16479492 33.15844727 C-3.17984362 31.02363618 -3.20028736 28.88885581 -3.22631836 26.75415039 C-3.26287386 23.67847086 -3.2797659 20.60320156 -3.29296875 17.52734375 C-3.30845261 16.57915268 -3.32393646 15.63096161 -3.33988953 14.65403748 C-3.34131783 8.97845457 -2.6320269 5.04851295 0 0 Z " fill="#C64958" transform="translate(9,19)"/>
<path d="M0 0 C15.18 0 30.36 0 46 0 C46 4.62 46 9.24 46 14 C44.02 14 42.04 14 40 14 C40.99 13.01 41.98 12.02 43 11 C43.66 7.7 44.32 4.4 45 1 C30.15 1 15.3 1 0 1 C0 0.67 0 0.34 0 0 Z " fill="#C63A4A" transform="translate(198,235)"/>
<path d="M0 0 C2.64 0 5.28 0 8 0 C8 0.66 8 1.32 8 2 C7.34 2 6.68 2 6 2 C5.34 4.64 4.68 7.28 4 10 C3.34 9.01 2.68 8.02 2 7 C1.34 7 0.68 7 0 7 C0 4.69 0 2.38 0 0 Z " fill="#A91329" transform="translate(8,219)"/>
<path d="M0 0 C0 2.64 0 5.28 0 8 C3.96 8 7.92 8 12 8 C12 8.33 12 8.66 12 9 C11.16855469 9.06058594 10.33710937 9.12117188 9.48046875 9.18359375 C8.39378906 9.26738281 7.30710937 9.35117188 6.1875 9.4375 C5.10855469 9.51871094 4.02960938 9.59992188 2.91796875 9.68359375 C-0.05989905 9.90212461 -0.05989905 9.90212461 -3 11 C-2.979375 10.236875 -2.95875 9.47375 -2.9375 8.6875 C-2.87057159 5.89814214 -2.87057159 5.89814214 -4 3 C-1.125 0 -1.125 0 0 0 Z " fill="#B72032" transform="translate(100,109)"/>
<path d="M0 0 C0.99 0.33 1.98 0.66 3 1 C2.21625 1.721875 1.4325 2.44375 0.625 3.1875 C-3.39015029 7.8851121 -3.41105663 14.07540551 -4 20 C-4.33 20 -4.66 20 -5 20 C-5.054348 17.9377952 -5.09294961 15.87517184 -5.125 13.8125 C-5.14820312 12.66394531 -5.17140625 11.51539063 -5.1953125 10.33203125 C-5.00153592 7.02620285 -4.55792505 4.90434372 -3 2 C-2.01 1.34 -1.02 0.68 0 0 Z " fill="#AF2C3F" transform="translate(28,23)"/>
<path d="M0 0 C0.66 0.33 1.32 0.66 2 1 C0.25 6.75 0.25 6.75 -2 9 C-4.625 9.625 -4.625 9.625 -7 10 C-5.33248852 6.05860922 -2.77289351 3.2107188 0 0 Z " fill="#C25A69" transform="translate(17,9)"/>
<path d="M0 0 C0.33 0.99 0.66 1.98 1 3 C6.28 3.66 11.56 4.32 17 5 C17 5.33 17 5.66 17 6 C11.72 6 6.44 6 1 6 C0.67 5.01 0.34 4.02 0 3 C-0.99 2.67 -1.98 2.34 -3 2 C-2.01 1.34 -1.02 0.68 0 0 Z " fill="#E45765" transform="translate(31,243)"/>
<path d="M0 0 C-0.804375 0.28875 -1.60875 0.5775 -2.4375 0.875 C-5.1326468 1.73262568 -5.1326468 1.73262568 -6 4 C-8.50390625 4.8515625 -8.50390625 4.8515625 -11.5625 5.625 C-12.57441406 5.88539063 -13.58632813 6.14578125 -14.62890625 6.4140625 C-15.41136719 6.60742188 -16.19382812 6.80078125 -17 7 C-12.55186844 1.85684788 -7.00786241 -2.27872586 0 0 Z " fill="#C97984" transform="translate(36,2)"/>
<path d="M0 0 C3.9492568 0.55105909 7.34920174 1.38935371 11 3 C10.67 3.66 10.34 4.32 10 5 C7.25 5.3125 7.25 5.3125 4 5 C1.625 2.5 1.625 2.5 0 0 Z " fill="#DF6D7A" transform="translate(15,238)"/>
<path d="M0 0 C0.99 0 1.98 0 3 0 C2.44271087 3.34373475 1.64826111 6.03312999 0 9 C-0.66 9 -1.32 9 -2 9 C-1.125 1.125 -1.125 1.125 0 0 Z " fill="#AE1F35" transform="translate(11,18)"/>
<path d="M0 0 C0 0.33 0 0.66 0 1 C-3.3 1 -6.6 1 -10 1 C-10.33 1.99 -10.66 2.98 -11 4 C-12.9375 4.8125 -12.9375 4.8125 -15 5 C-15.66 4.34 -16.32 3.68 -17 3 C-11.42531458 -0.61601216 -6.39432346 -0.30720059 0 0 Z " fill="#9F263A" transform="translate(47,1)"/>
<path d="M0 0 C1.13732426 3.40401948 0.83989957 5.77456664 0.0625 9.25 C-0.13214844 10.14203125 -0.32679687 11.0340625 -0.52734375 11.953125 C-0.68332031 12.62859375 -0.83929688 13.3040625 -1 14 C-3 11 -3 11 -2.75 7.5625 C-2.13121575 4.6232748 -1.52580857 2.54301429 0 0 Z " fill="#CA6875" transform="translate(9,19)"/>
<path d="M0 0 C0.33 0 0.66 0 1 0 C1 4.62 1 9.24 1 14 C-0.98 14 -2.96 14 -5 14 C-4.525625 13.54625 -4.05125 13.0925 -3.5625 12.625 C-1.03765745 9.99916374 -0.79083585 7.90835845 -0.4375 4.375 C-0.35371094 3.55773437 -0.26992187 2.74046875 -0.18359375 1.8984375 C-0.12300781 1.27195313 -0.06242188 0.64546875 0 0 Z " fill="#DA4A5C" transform="translate(243,235)"/>
<path d="M0 0 C-1.28716647 1.00578589 -2.57988658 2.00446798 -3.875 3 C-4.95394531 3.8353125 -4.95394531 3.8353125 -6.0546875 4.6875 C-8 6 -8 6 -10 6 C-9.875 4.1875 -9.875 4.1875 -9 2 C-3.81203008 -1.27067669 -3.81203008 -1.27067669 0 0 Z " fill="#A0172A" transform="translate(28,7)"/>
<path d="M0 0 C-2.52956528 3.0916909 -5.22454612 3.90931332 -9 5 C-9.33 3.68 -9.66 2.36 -10 1 C-6.59437148 0.22157062 -3.49234244 -0.09978121 0 0 Z " fill="#AE2034" transform="translate(35,20)"/>
<path d="M0 0 C0.33 0 0.66 0 1 0 C1 3.63 1 7.26 1 11 C0.01 11 -0.98 11 -2 11 C-1.67 10.01 -1.34 9.02 -1 8 C-1.66 7.34 -2.32 6.68 -3 6 C-2.34 5.34 -1.68 4.68 -1 4 C-0.3574765 1.93125966 -0.3574765 1.93125966 0 0 Z " fill="#B52438" transform="translate(99,223)"/>
</svg>
